<?xml version="1.0" encoding="UTF-8" standalone="no"?>
<svg
   width="700"
   height="150"
   viewBox="0 0 700 150"
   version="1.1"
   style="stroke-linecap:round;stroke-linejoin:round;stroke-miterlimit:1.5"
   id="svg9"
   sodipodi:docname="catPic.svg"
   inkscape:export-filename="catPic.png"
   inkscape:export-xdpi="600"
   inkscape:export-ydpi="600"
   inkscape:version="1.4.2 (ebf0e940d0, 2025-05-08)"
   inkscape:export-batch-path="/home/arjuntina"
   inkscape:export-batch-name="catPic"
   xmlns:inkscape="http://www.inkscape.org/namespaces/inkscape"
   xmlns:sodipodi="http://sodipodi.sourceforge.net/DTD/sodipodi-0.dtd"
   xmlns="http://www.w3.org/2000/svg"
   xmlns:svg="http://www.w3.org/2000/svg">
  <defs
     id="defs9" />
  <sodipodi:namedview
     id="namedview9"
     pagecolor="#ffffff"
     bordercolor="#000000"
     borderopacity="0.25"
     inkscape:showpageshadow="2"
     inkscape:pageopacity="0.0"
     inkscape:pagecheckerboard="0"
     inkscape:deskcolor="#d1d1d1"
     inkscape:zoom="1.6938862"
     inkscape:cx="323.8116"
     inkscape:cy="163.52929"
     inkscape:window-width="1718"
     inkscape:window-height="1035"
     inkscape:window-x="0"
     inkscape:window-y="0"
     inkscape:window-maximized="1"
     inkscape:current-layer="svg9"
     inkscape:export-bgcolor="#ffffff00"
     showguides="true" />
  <path
     d="m 122.80844,62.667498 c 0,-3.890999 -3.336,-4.466 -3.336,-14.893999"
     style="fill:none;stroke:#a789d1;stroke-width:1.5px;stroke-opacity:1"
     id="path1" />
  <path
     d="m 126.39644,52.594498 v 9.997"
     style="fill:none;stroke:#a789d1;stroke-width:1.5px;stroke-opacity:1"
     id="path2" />
  <path
     d="m 129.88244,62.422498 c 0,-3.435 2.17,-7.598 2.17,-13.068 0,-5.470999 -0.66,-10.289 -0.837,-13.274"
     style="fill:none;stroke:#a789d1;stroke-width:1.5px;stroke-opacity:1"
     id="path3" />
  <path
     d="m 129.95044,36.511499 c 0,0 3.384,-0.265 4.553,-5.545998"
     style="fill:none;stroke:#a789d1;stroke-width:1.5px;stroke-opacity:1"
     id="path4" />
  <path
     d="m 124.78744,26.113501 c 0,0 -1.419,-4.409 -2.619,-4.409 -1.2,0 -3.299,5.753 -3.299,14.427997 0,2.241 -11.689,8.123 -9.211,21.709 0.398,2.18 1.394,6.337001 1.394,6.353001 0,0.016 2.518,9.529 -2.869,9.529 -1.121,0 -1.658,-0.620001 -2.779,-0.620001 -1.12,0 -2.024,0.765 -2.024,1.758 0,0.993 1.11,3.434 5.065,3.434 7.147,0 7.419,-5.987 7.419,-9.867 0,-3.88 -0.036,-2.679 -0.036,-3.314 0,-2.127 1.772,-2.56 2.43,-2.801"
     style="fill:none;stroke:#a789d1;stroke-width:1.5px;stroke-opacity:1"
     id="path5" />
  <ellipse
     transform="matrix(0.92765078,-0.37344882,0.37345044,0.92765013,0,0)"
     cx="108.11607"
     cy="75.04673"
     rx="1.1177608"
     ry="1.4385843"
     style="fill:#2f2c3e;stroke:#d0afff;stroke-width:1.03697;stroke-opacity:1"
     id="ellipse5" />
  <path
     d="m 127.07344,24.617501 c 3.543,0 4.374,4.288 7.066,4.288"
     style="fill:none;stroke:#a789d1;stroke-width:1.5px;stroke-opacity:1"
     id="path6" />
  <path
     d="m 129.56744,23.344501 c 0,0 -1.015,-2.334 -1.891,-2.334 -0.876,0 -2.14,2.429 -2.14,2.429"
     style="fill:none;stroke:#a789d1;stroke-width:1.5px;stroke-opacity:1"
     id="path7" />
  <path
     d="M 119.01218,64.878949 H 647.23393"
     style="fill:none;stroke:#5f3a93;stroke-width:1.10799px;stroke-opacity:1"
     id="path8"
     sodipodi:nodetypes="cc" />
  <path
     d="M 0,64.880128 H 108.45051"
     style="fill:none;stroke:#5f3a93;stroke-width:0.883383px;stroke-opacity:1"
     id="path9"
     sodipodi:nodetypes="cc" />
</svg>
