<?xml version="1.0" encoding="UTF-8" standalone="no"?>
<svg
   width="600"
   height="200"
   viewBox="0 0 600 200"
   version="1.1"
   style="stroke-linecap:round;stroke-linejoin:round;stroke-miterlimit:1.5"
   id="svg9"
   sodipodi:docname="catPicCopy.svg"
   inkscape:export-filename="catPicCopy.png"
   inkscape:export-xdpi="600"
   inkscape:export-ydpi="600"
   inkscape:version="1.4.2 (ebf0e940d0, 2025-05-08)"
   inkscape:export-batch-path="/home/arjuntina"
   inkscape:export-batch-name="catPic"
   xml:space="preserve"
   xmlns:inkscape="http://www.inkscape.org/namespaces/inkscape"
   xmlns:sodipodi="http://sodipodi.sourceforge.net/DTD/sodipodi-0.dtd"
   xmlns="http://www.w3.org/2000/svg"
   xmlns:svg="http://www.w3.org/2000/svg"><defs
     id="defs9"><inkscape:path-effect
       effect="bspline"
       id="path-effect11"
       is_visible="true"
       lpeversion="1.3"
       weight="33.333333"
       steps="2"
       helper_size="0"
       apply_no_weight="true"
       apply_with_weight="true"
       only_selected="false"
       uniform="false" /></defs><sodipodi:namedview
     id="namedview9"
     pagecolor="#ffffff"
     bordercolor="#000000"
     borderopacity="0.25"
     inkscape:showpageshadow="2"
     inkscape:pageopacity="0.0"
     inkscape:pagecheckerboard="0"
     inkscape:deskcolor="#d1d1d1"
     inkscape:zoom="2.9470119"
     inkscape:cx="326.09301"
     inkscape:cy="179.33419"
     inkscape:window-width="1718"
     inkscape:window-height="1014"
     inkscape:window-x="0"
     inkscape:window-y="0"
     inkscape:window-maximized="1"
     inkscape:current-layer="g7"
     inkscape:export-bgcolor="#ffffff00"
     showguides="true" /><path
     d="m 122.80844,176.6675 c 0,-3.891 -3.336,-4.466 -3.336,-14.894"
     style="fill:none;stroke:#a789d1;stroke-width:1.5px;stroke-opacity:1"
     id="path1" /><path
     d="m 126.39644,166.5945 v 9.997"
     style="fill:none;stroke:#a789d1;stroke-width:1.5px;stroke-opacity:1"
     id="path2" /><path
     d="m 129.88244,176.4225 c 0,-3.435 2.17,-7.598 2.17,-13.068 0,-5.471 -0.66,-10.289 -0.837,-13.274"
     style="fill:none;stroke:#a789d1;stroke-width:1.5px;stroke-opacity:1"
     id="path3" /><path
     d="m 129.95044,150.5115 c 0,0 3.384,-0.265 4.553,-5.546"
     style="fill:none;stroke:#a789d1;stroke-width:1.5px;stroke-opacity:1"
     id="path4" /><path
     d="m 124.78744,140.1135 c 0,0 -1.419,-4.409 -2.619,-4.409 -1.2,0 -3.299,5.753 -3.299,14.428 0,2.241 -11.689,8.123 -9.211,21.709 0.398,2.18 1.394,6.337 1.394,6.353 0,0.016 2.518,9.529 -2.869,9.529 -1.121,0 -1.658,-0.62 -2.779,-0.62 -1.12,0 -2.024,0.765 -2.024,1.758 0,0.993 1.11,3.434 5.065,3.434 7.147,0 7.419,-5.987 7.419,-9.867 0,-3.88 -0.036,-2.679 -0.036,-3.314 0,-2.127 1.772,-2.56 2.43,-2.801"
     style="fill:none;stroke:#a789d1;stroke-width:1.5px;stroke-opacity:1"
     id="path5" /><ellipse
     transform="matrix(0.92765078,-0.37344882,0.37345044,0.92765013,0,0)"
     cx="65.542625"
     cy="180.79887"
     rx="1.1177608"
     ry="1.4385843"
     style="fill:#2f2c3e;stroke:#d0afff;stroke-width:1.03697;stroke-opacity:1"
     id="ellipse5" /><path
     d="m 127.07344,138.6175 c 3.543,0 4.374,4.288 7.066,4.288"
     style="fill:none;stroke:#a789d1;stroke-width:1.5px;stroke-opacity:1"
     id="path6" /><path
     d="m 129.56744,137.3445 c 0,0 -1.015,-2.334 -1.891,-2.334 -0.876,0 -2.14,2.429 -2.14,2.429"
     style="fill:none;stroke:#a789d1;stroke-width:1.5px;stroke-opacity:1"
     id="path7" /><path
     d="M 118.89951,178.87895 H 539.68957"
     style="fill:none;stroke:#5f3a93;stroke-width:0.988918px;stroke-opacity:1"
     id="path8"
     sodipodi:nodetypes="cc" /><path
     d="M 0,178.88013 H 108.45051"
     style="fill:none;stroke:#5f3a93;stroke-width:0.883383px;stroke-opacity:1"
     id="path9"
     sodipodi:nodetypes="cc" /><path
     style="fill:none;stroke:#a789d1;stroke-width:1.92054;stroke-opacity:1"
     id="path10"
     sodipodi:type="arc"
     sodipodi:cx="10.620328"
     sodipodi:cy="381.14648"
     sodipodi:rx="19.028618"
     sodipodi:ry="18.602354"
     sodipodi:start="5.7797907"
     sodipodi:end="3.4659898"
     sodipodi:arc-type="arc"
     d="M 27.288447,372.17267 A 19.028618,18.602354 0 0 1 23.605761,394.74414 19.028618,18.602354 0 0 1 0.31881069,396.78706 19.028618,18.602354 0 0 1 -7.4158153,375.21722"
     transform="matrix(0.1171084,-0.99311914,0.99301463,0.11799129,0,0)"
     sodipodi:open="true" /><path
     style="fill:none;stroke:#a789d1;stroke-width:2.22776;stroke-opacity:1"
     id="path13"
     transform="matrix(-0.02799723,-0.999608,0.99940857,-0.03438756,0,0)"
     sodipodi:type="arc"
     sodipodi:cx="-46.900967"
     sodipodi:cy="370.26614"
     sodipodi:rx="17.382662"
     sodipodi:ry="17.389479"
     sodipodi:start="0.13244674"
     sodipodi:end="3.1177514"
     sodipodi:open="true"
     sodipodi:arc-type="arc"
     d="m -29.670547,372.5626 a 17.382662,17.389479 0 0 1 -18.173882,15.06739 17.382662,17.389479 0 0 1 -16.434259,-16.9493" /><g
     style="fill:#000000;stroke:#c79fff;stroke-opacity:1"
     id="g7"
     transform="matrix(0.06375071,0,0,0.06375071,432.86739,150.21236)" /></svg>
